<?xml version="1.0" encoding="UTF-8"?>
<svg xmlns="http://www.w3.org/2000/svg" xmlns:xlink="http://www.w3.org/1999/xlink" width="162px" height="48px" viewBox="0 0 162 48">
  <title>MIB-Podcast-2021-White</title>
  <g id="Page-1" stroke="none" stroke-width="1" fill="none" fill-rule="evenodd">
    <g id="Artboard" transform="translate(-787.000000, -75.000000)" fill="#FFFFFF" fill-rule="nonzero">
      <path d="M917.052386,106.677174 C917.469001,106.053812 918.308657,105.892039 918.930901,106.31049 C921.656569,108.164401 923.283402,111.247781 923.283402,114.555486 C923.283402,117.836228 921.675847,120.905588 918.984451,122.761655 C918.752046,122.923428 918.484299,123 918.221906,123 C917.789227,123 917.367257,122.792931 917.104864,122.407913 C916.682895,121.786708 916.84033,120.940099 917.456149,120.514099 C919.410705,119.164918 920.578083,116.937852 920.578083,114.555486 C920.578083,112.152628 919.395711,109.914777 917.417593,108.568832 C916.79749,108.147145 916.6347,107.301615 917.052386,106.677174 Z M848.200619,108.580695 C850.35652,108.580695 851.649205,109.304357 852.711626,110.358034 L851.109426,112.218415 C850.226931,111.411711 849.3273,110.917766 848.183483,110.917766 C846.25356,110.917766 844.864487,112.531175 844.864487,114.505875 L844.864487,114.539308 C844.864487,116.514009 846.22143,118.160851 848.183483,118.160851 C849.491161,118.160851 850.292261,117.633473 851.191892,116.81167 L852.794092,118.440178 C851.616004,119.708473 850.308326,120.499 848.102088,120.499 C844.733826,120.499 842.233066,117.880446 842.233066,114.572741 L842.233066,114.539308 C842.233066,111.26288 844.684561,108.580695 848.200619,108.580695 Z M809.55825,108.580695 C813.088231,108.580695 815.623263,111.230526 815.623263,114.505875 L815.623263,114.539308 C815.623263,117.814658 813.056101,120.499 809.525049,120.499 C805.993997,120.499 803.460036,117.848091 803.460036,114.572741 L803.460036,114.539308 C803.460036,111.26288 806.027198,108.580695 809.55825,108.580695 Z M883.328,108.61305 C884.99446,108.61305 886.416734,109.139349 887.576615,110.078707 L886.270008,111.98762 C885.255781,111.280136 884.259761,110.8509 883.293729,110.8509 C882.329838,110.8509 881.82326,111.296313 881.82326,111.856045 L881.82326,111.8884 C881.82326,112.645494 882.313773,112.893545 884.291891,113.403667 C886.612725,114.011931 887.921474,114.852068 887.921474,116.86128 L887.921474,116.893635 C887.921474,119.181095 886.187542,120.464489 883.719983,120.464489 C881.987122,120.464489 880.238196,119.856225 878.865188,118.621363 L880.351721,116.826769 C881.382013,117.683084 882.460499,118.226639 883.769248,118.226639 C884.798469,118.226639 885.420714,117.814658 885.420714,117.139529 L885.420714,117.107174 C885.420714,116.464399 885.02659,116.13654 883.114874,115.642596 C880.810104,115.04943 879.3225,114.407734 879.3225,112.119195 L879.3225,112.08684 C879.3225,109.995664 880.990031,108.61305 883.328,108.61305 Z M904.57643,108.776979 L904.57643,111.115128 L901.094644,111.115128 L901.094644,120.300559 L898.577819,120.300559 L898.577819,111.115128 L895.096032,111.115128 L895.096032,108.776979 L904.57643,108.776979 Z M867.095014,108.695014 L871.999074,120.300559 L869.367653,120.300559 L868.322368,117.716517 L863.482567,117.716517 L862.437281,120.300559 L859.870119,120.300559 L864.77418,108.695014 L867.095014,108.695014 Z M828.372321,108.776979 C831.967632,108.776979 834.453399,111.26288 834.453399,114.505875 L834.453399,114.539308 C834.453399,117.782304 831.967632,120.300559 828.372321,120.300559 L823.908437,120.300559 L823.908437,108.776979 L828.372321,108.776979 Z M791.674869,108.776979 C794.404821,108.776979 796.056286,110.407644 796.056286,112.76197 L796.056286,112.794324 C796.056286,115.461411 793.995703,116.844025 791.429612,116.844025 L789.517896,116.844025 L789.517896,120.300559 L787,120.300559 L787,108.776979 L791.674869,108.776979 Z M914.008634,110.688049 C914.427391,110.066843 915.267047,109.899679 915.886078,110.323522 C917.284791,111.275822 918.119091,112.857955 918.119091,114.555486 C918.119091,116.240075 917.29443,117.814658 915.912853,118.769115 C915.679378,118.929809 915.412701,119.00746 915.149238,119.00746 C914.717629,119.00746 914.295659,118.799312 914.031125,118.415373 C913.610226,117.794167 913.767661,116.94648 914.38348,116.52048 C915.028216,116.076145 915.412701,115.340621 915.412701,114.555486 C915.412701,113.76388 915.023932,113.02512 914.370628,112.579707 C913.752668,112.15802 913.588806,111.311412 914.008634,110.688049 Z M809.525049,110.917766 C807.498737,110.917766 806.091457,112.531175 806.091457,114.505875 L806.091457,114.539308 C806.091457,116.514009 807.530867,118.160851 809.55825,118.160851 C811.584562,118.160851 812.990771,116.54852 812.990771,114.572741 L812.990771,114.539308 C812.990771,112.563529 811.552432,110.917766 809.525049,110.917766 Z M828.372321,111.066596 L826.427404,111.066596 L826.427404,118.013099 L828.372321,118.013099 C830.431834,118.013099 831.821978,116.613229 831.821978,114.572741 L831.821978,114.539308 C831.821978,112.49882 830.431834,111.066596 828.372321,111.066596 Z M910.873848,112.753342 C911.858087,112.753342 912.655974,113.556811 912.655974,114.547936 C912.655974,115.539061 911.858087,116.34253 910.873848,116.34253 C909.889609,116.34253 909.092793,115.539061 909.092793,114.547936 C909.092793,113.556811 909.889609,112.753342 910.873848,112.753342 Z M865.903003,111.740648 L864.382198,115.476509 L867.422737,115.476509 L865.903003,111.740648 Z M791.462813,111.066596 L789.517896,111.066596 L789.517896,114.588919 L791.511007,114.588919 C792.770491,114.588919 793.50519,113.831824 793.50519,112.843935 L793.50519,112.81158 C793.50519,111.67486 792.721225,111.066596 791.462813,111.066596 Z M930.157012,80.5088862 C932.430723,80.5088862 933.783382,81.5970746 934.880076,82.9419417 L934.880076,80.9241018 L940.525261,80.9241018 L940.525261,94.7437706 C940.525261,97.5931202 939.856963,99.6271373 938.48931,101.00328 C937.058468,102.445211 934.816887,103.181814 931.636049,103.181814 C929.092449,103.214169 926.578837,102.685712 924.274068,101.612623 L925.832357,97.5618442 C927.43777,98.4418855 929.23489,98.9067113 931.06414,98.9067113 C933.655935,98.9067113 934.927199,97.6265531 934.927199,95.1751635 L934.927199,94.3102209 C933.878701,95.6561664 932.509976,96.8090637 930.269466,96.8090637 C926.722349,96.8090637 923.828536,94.1506055 923.828536,88.8196688 L923.828536,88.5619116 C923.844601,83.1986204 926.770544,80.5088862 930.157012,80.5088862 Z M851.335405,80.523985 C856.43974,80.523985 858.984411,84.4636799 858.984411,89.7956951 L858.984411,91.3648864 L848.919253,91.3648864 C849.31659,93.254387 850.57286,94.1991372 852.273592,94.1991372 C853.609115,94.1991372 854.737938,93.5897949 855.788579,92.5814142 L858.47462,95.7845058 C856.806019,97.6891051 854.388796,98.747096 851.86019,98.6985643 C846.994685,98.6511111 843.512832,95.2398724 843.512832,89.7644191 L843.512832,89.410677 C843.495762,84.2070011 846.787984,80.523985 851.335405,80.523985 Z M883.550766,76.5379154 L883.550766,80.8928258 L886.891182,80.8928258 L886.891182,85.4246074 L883.535772,85.4246074 L883.535772,92.261105 C883.535772,93.254387 883.980233,93.7030355 884.934485,93.7030355 C885.602782,93.6868582 886.255014,93.5261644 886.842988,93.2382097 L886.842988,97.6891051 C885.682035,98.2984474 884.378641,98.6187566 883.074176,98.6187566 C879.909402,98.6187566 877.906652,97.241535 877.906652,93.5099872 L877.906652,85.4246074 L876.220915,85.4246074 L876.220915,80.8928258 L877.906652,80.8928258 L877.906652,76.5379154 L883.550766,76.5379154 Z M817.608877,80.6372256 C820.328119,80.6372256 822.204493,81.3091199 823.460763,82.5580021 C824.700969,83.8068843 825.241819,85.504415 825.241819,87.8263869 L825.241819,98.2499157 L819.628763,98.2499157 L819.628763,96.4887546 C818.595259,97.8659761 816.97271,98.6511111 815.255914,98.6025794 C812.377094,98.6025794 810.198702,96.7130788 810.198702,93.3029186 L810.198702,93.1098704 C810.198702,89.379401 812.615925,87.6171613 816.114847,87.6171613 C817.338988,87.6020626 818.547064,87.8263869 819.693023,88.2901341 L819.693023,87.8900173 C819.693023,86.1288561 818.674512,85.2002831 816.686755,85.2002831 C815.288043,85.2315591 813.904325,85.5518682 812.633061,86.1450334 L811.328595,81.9659155 C813.284222,81.0686184 815.447621,80.6199699 817.608877,80.6372256 Z M949,92.3096367 L949,98.2499157 L943.085996,98.2499157 L943.085996,92.3096367 L949,92.3096367 Z M792.947204,75.7851349 L797.446431,84.0624846 L801.946728,75.7851349 L807.893932,75.7851349 L807.893932,98.2499157 L802.248747,98.2499157 L802.248747,85.6003999 L797.446431,93.943537 L797.351113,93.943537 L792.645185,85.6327544 L792.645185,98.2499157 L787,98.2499157 L787,75.7851349 L792.947204,75.7851349 Z M921.443443,80.8928258 L921.443443,98.2499157 L915.845381,98.2499157 L915.845381,80.8928258 L921.443443,80.8928258 Z M873.644114,80.8928258 L873.644114,98.2499157 L868.063188,98.2499157 L868.063188,80.8928258 L873.644114,80.8928258 Z M905.335762,75.7851349 C908.053933,75.7851349 910.089884,76.4246748 911.441472,77.7382659 C912.395724,78.7477251 912.920509,80.0925922 912.872314,81.4849125 L912.872314,81.6132518 C912.872314,84.1757252 911.409343,85.6963848 909.581164,86.5613274 C911.982322,87.42627 913.63593,88.9307525 913.63593,91.8933426 L913.63593,92.0206035 C913.63593,95.8481362 910.630733,98.2499157 905.367891,98.2499157 L896.065277,98.2499157 L896.065277,75.7851349 L905.335762,75.7851349 Z M833.462734,75 L833.462734,86.705844 L837.325792,80.8928258 L843.527892,80.8928258 L838.551004,87.8263869 L843.62321,98.2499157 L837.45324,98.2499157 L834.671881,92.2449278 L833.414539,93.943537 L833.414539,98.2337385 L827.770425,98.2337385 L827.785419,75 L833.462734,75 Z M817.800584,90.6919136 C816.368672,90.6919136 815.526874,91.5245018 815.526874,92.8380929 L815.526874,92.9653538 C815.526874,94.18296 816.257289,94.8882872 817.306858,94.8882872 C818.706641,94.903386 819.724081,93.943537 819.724081,92.3743456 L819.724081,91.0931089 C819.136108,90.820253 818.467811,90.6919136 817.800584,90.6919136 Z M905.017678,89.0439931 L901.663339,89.0439931 L901.663339,93.4463568 L905.049808,93.4463568 C906.861922,93.4463568 907.927556,92.6299459 907.927556,91.2689015 L907.927556,91.2365471 C907.927556,89.9067787 906.941175,89.0439931 905.017678,89.0439931 Z M932.160834,85.1032197 C930.491161,85.1032197 929.346273,86.5127957 929.346273,88.658975 L929.346273,88.7549599 C929.346273,90.9000607 930.459031,92.2783607 932.160834,92.2783607 C933.862636,92.2783607 934.975394,90.8687847 934.975394,88.7226054 L934.975394,88.6266205 C934.975394,86.5127957 933.830506,85.1032197 932.160834,85.1032197 Z M851.335405,84.8476195 C849.967751,84.8476195 849.093824,86.0005168 848.871058,88.2103265 L853.736563,88.2103265 C853.594121,86.0328712 852.703058,84.8476195 851.335405,84.8476195 Z M904.540017,80.6199699 L901.663339,80.6199699 L901.663339,84.8001663 L904.41364,84.8001663 C906.162566,84.8001663 907.2282,84.0959175 907.2282,82.7176175 L907.212135,82.7025187 C907.2282,81.3242187 906.241819,80.6199699 904.540017,80.6199699 Z M873.772633,75.0161772 L873.772633,79.3721662 L867.951805,79.3721662 L867.951805,75.0161772 L873.772633,75.0161772 Z M921.57089,75.0161772 L921.57089,79.3721662 L915.751134,79.3721662 L915.751134,75.0161772 L921.57089,75.0161772 Z" id="MIB-Podcast-2021-White"></path>
    </g>
  </g>
</svg>
